<mxfile host="app.diagrams.net" modified="2023-06-16T08:22:13.705Z" agent="Mozilla/5.0 (Windows NT 10.0; Win64; x64) AppleWebKit/537.36 (KHTML, like Gecko) Chrome/114.0.0.0 Safari/537.36" version="21.3.5" etag="5tyBhdAPn4BJWFBgosHB" type="github">
  <diagram name="Page-1" id="E-2cFNVOteqB2twEcJbT">
    <mxGraphModel>
      <root>
        <mxCell id="0" />
        <mxCell id="1" parent="0" />
      </root>
    </mxGraphModel>
  </diagram>
</mxfile>
